<svg id="Layer_1" data-name="Layer 1" xmlns="http://www.w3.org/2000/svg" viewBox="0 0 2000 2000"><defs><style>.cls-1{fill:#fff;}.cls-2{fill:none;}</style></defs><rect class="cls-1" width="2000" height="2000"/><path d="M1191.62,949.5a32.46,32.46,0,0,0-5.08,1Z"/><path d="M1079.22,711c-.24,2.48-8.25,9-10,11.17A182.86,182.86,0,0,0,1057.78,738a280.85,280.85,0,0,0-17.93,33c-46.27,97.76-76.31,212.51-38.14,318.75,10,27.94,23.43,54.61,38.77,80,14.62,24.19,32.86,45.94,47.75,70,32.47,52.36,61.86,106.58,89.44,161.65,2.54,5.07,9.56,14.15,9.85,19.72a375.76,375.76,0,0,0-62.89-188.92c-19.18-28.56-42.21-54.35-61.83-82.6-37.93-54.61-59.3-146.13-13.18-202.3,5.9-7.18,59.47-50,63.35-38.09,18,54.81,96.26,30.06,132.55,13.14,13.21-6.16,18.91-11,18.91-11-3.88-1.7-10.22-.52-15.27-1.22-24.44-3.39-50.61-1.64-75.17-7.37-21.93-5.11-41.72-16.85-57.56-32.77-31.52-31.69-45.2-77.88-40.86-121.87Z"/><path d="M430.62,574.23c-4.75-2.8-7.7-4.68-8.43-5.13A55.53,55.53,0,0,0,430.62,574.23Z"/><path d="M1573.91,973.14c-8-32.52-34.59-45.87-59.58-64.23-25.27-18.54-48.93-39.77-64.19-67.57-16.83-30.66-27.31-66.39-33.42-99.24-12.09-65-42.18-115.47-66.78-176.84-17.63-44-42.28-72.94-78.25-101.76A363.41,363.41,0,0,0,1333,347.14l-92.24,79.11q22.69-50.19,45.39-100.39c-47.5,46-109.28,69.29-173.5,88.2-47.67,1.67-197.66,8.29-274,27.31-91.5,22.78-216,52.79-216,52.79l195.81-14.42,4.67,25.09s-115.68,21.51-131.55,64.85c0,0-194,38.07-260.85,4.59C460,591.59,556.58,643.91,615.1,618.52,612.91,620.06,352,791.74,507.57,1161c3.13-6.76-80.95-347.12,121.71-465.8C691,659.12,748.81,607.35,821.84,571c55.73-45.79,121.71-81.63,203.26-110.78q38.13-13.62,81-25.41l21-5.44c-26.54,17.6-41.88,50.72-38.13,82.35,18.14-35.79,59.82-58.1,99.64-53.31-5.91,22.84-33.18,30.85-54.45,41.07-38.75,18.63-67.31,57.11-73.87,99.61,27.31-44.87,85.7-61.65,138.09-57.87,21.59,1.56,44.12,5.77,64.24-2.18l.5-.2a40.61,40.61,0,0,1,53.18,21.7,1746.48,1746.48,0,0,1,67,190.64c12.71,44.2,24.4,90.4,53.35,126.14,35.15,43.38,95.28,71.75,105,126.73,7.4,41.77-24.2,86.47-66,93.44-18.33,3-40.1-2.25-48.53-18.79-3.46-6.78-4.27-14.59-5.51-22.19h0l2.93-52.3s-12.67,25.06-110.65-12.44a237.27,237.27,0,0,1-60.46-54.12l-61.68,11.86c23.36-2.77,43.89,18.88,61.29,36.29a272.87,272.87,0,0,0,135.64,73.65c2.36,41.4,43.44,74.66,84.91,73.92,38.18-.7,67.15-22.51,84.8-52.37C1577.16,1049,1582.74,1009.21,1573.91,973.14Z"/><path d="M578.78,1091c36.41,117.87-1.62,223.48-1.62,223.48s68-59.87,39.24-185.81C583,982.09,654.85,890.89,654.85,890.89S550,997.85,578.78,1091Z"/><path d="M678.7,1261.49c-1.41-5.21-2.89-10.4-4.5-15.57C674.2,1245.92,675,1251.65,678.7,1261.49Z"/><path d="M987.64,1293.33q-3-2.24-5.94-4.5a447.86,447.86,0,0,1-106.31-116.95c-22.37-35.66-38.44-74.9-49-115.61l-.45-1.73a741.54,741.54,0,0,1-19.85-261.95l6.4-62.1-11.32,21.69A472.25,472.25,0,0,0,755.7,882.3c-.81,4.26-1.52,8.33-2.1,12.13-8.35,54.56-10,110.51-1.33,165.15,17.76,112.32,83.41,206.74,177.31,269.33,163.24,108.8,227.52,203.67,227.52,203.67-37.51-28-180.39-61.62-180.39-61.62-225.07-67.91-283.56-170.66-298-209.47C701,1343.9,707.08,1431.23,976,1518.66c286,93,358.58,230,358.58,230C1280.92,1513.37,1147.88,1412.9,987.64,1293.33Z"/><circle class="cls-2" cx="1003" cy="1003" r="997"/></svg>